<svg xmlns="http://www.w3.org/2000/svg" viewBox="0 0 116 116" width="116" height="116">
  <style>
    line {
      fill: none;
      stroke: #ff0062;
      stroke-width: 4.8;
    }
  </style>
  <line x1="70.383" y1="68.504" x2="101.142" y2="96.171"/>
  <line x1="113.194" y1="75.27" x2="73.855" y2="62.511"/>
  <line x1="115.704" y1="51.274" x2="74.579" y2="55.618"/>
  <line x1="108.236" y1="28.332" x2="72.423" y2="49.034"/>
  <line x1="92.083" y1="10.411" x2="67.784" y2="43.892"/>
  <line x1="70.037" y1="0.609" x2="61.46" y2="41.064"/>
  <line x1="54.529" y1="41.068" x2="45.91" y2="0.622"/>
  <line x1="23.875" y1="10.446" x2="48.208" y2="43.902"/>
  <line x1="43.574" y1="49.048" x2="7.74" y2="28.384"/>
  <line x1="41.425" y1="55.635" x2="0.296" y2="51.334"/>
  <line x1="42.157" y1="62.527" x2="2.831" y2="75.327"/>
  <line x1="45.635" y1="68.517" x2="14.905" y2="96.215"/>
  <line x1="51.234" y1="72.593" x2="34.431" y2="110.387"/>
  <line x1="58.033" y1="115.391" x2="58.012" y2="74.038"/>
  <line x1="81.63" y1="110.362" x2="64.787" y2="72.586"/>
</svg>