<svg width="319" height="84" viewBox="0 0 319 84" fill="none" xmlns="http://www.w3.org/2000/svg">
<path d="M187.432 65.7987C187.267 65.7456 187.091 65.7458 186.926 65.7993C186.762 65.8527 186.619 65.9567 186.518 66.0963C184.348 69.0725 181.161 70.4296 175.393 70.4296C168.747 70.4296 163.935 66.9921 162.214 60.1171H201.878C202.09 60.1166 202.293 60.0348 202.446 59.8885C202.599 59.7422 202.69 59.5428 202.699 59.3314C202.774 57.7094 202.774 56.8552 202.774 54.9624C202.774 38.9207 191.548 26.7749 175.277 26.7749C159.006 26.7749 147.551 38.9207 147.551 54.9624C147.551 71.1171 158.664 83.1469 175.735 83.1469C184.821 83.1469 194.405 79.4832 199.164 70.6469C199.223 70.5401 199.259 70.4214 199.267 70.2994C199.275 70.1774 199.256 70.0551 199.212 69.9412C199.167 69.8274 199.097 69.7248 199.008 69.641C198.919 69.5572 198.813 69.4941 198.696 69.4564L187.432 65.7987ZM162.116 49.5665C163.604 43.6142 168.417 39.5993 175.292 39.5993C181.821 39.5993 187.321 43.7243 188.354 49.5665H162.116Z" fill="#FF0062"/>
<path d="M246.953 65.7987C246.788 65.7456 246.611 65.7458 246.447 65.7993C246.283 65.8527 246.14 65.9567 246.039 66.0963C243.869 69.0725 240.682 70.4296 234.914 70.4296C228.268 70.4296 223.455 66.9921 221.738 60.1171H261.399C261.611 60.1166 261.814 60.0349 261.968 59.8887C262.121 59.7425 262.213 59.5431 262.223 59.3314C262.298 57.7094 262.298 56.8552 262.298 54.9624C262.298 38.9207 251.069 26.7749 234.801 26.7749C218.533 26.7749 207.072 38.9207 207.072 54.9624C207.072 71.1171 218.188 83.1469 235.259 83.1469C244.342 83.1469 253.929 79.4832 258.685 70.6469C258.744 70.5401 258.78 70.4214 258.788 70.2994C258.796 70.1774 258.777 70.0551 258.732 69.9412C258.688 69.8274 258.618 69.7248 258.529 69.641C258.44 69.5572 258.334 69.4941 258.217 69.4564L246.953 65.7987ZM221.622 49.5665C223.11 43.6142 227.926 39.5993 234.801 39.5993C241.33 39.5993 246.83 43.7243 247.86 49.5665H221.622Z" fill="#FF0062"/>
<path d="M61.6012 28.0278H47.4315C46.9779 28.0278 46.6101 28.3956 46.6101 28.8493V81.0576C46.6101 81.5113 46.9779 81.879 47.4315 81.879H61.6012C62.0548 81.879 62.4226 81.5113 62.4226 81.0576V28.8493C62.4226 28.3956 62.0548 28.0278 61.6012 28.0278Z" fill="#FF0062"/>
<path d="M54.5149 0.872986C49.128 0.872986 44.6608 5.11107 44.6608 10.498C44.6608 15.7658 49.1251 19.8908 54.5149 19.8908C59.9048 19.8908 64.3691 15.7658 64.3691 10.498C64.3691 5.11107 59.8989 0.872986 54.5149 0.872986Z" fill="#FF0062"/>
<path d="M144.556 28.0277H129.559V10.5188C129.56 10.4107 129.539 10.3036 129.498 10.2036C129.457 10.1036 129.396 10.0127 129.32 9.93606C129.244 9.85947 129.153 9.79871 129.053 9.75724C128.953 9.71577 128.846 9.69442 128.738 9.69442H114.571C114.353 9.69521 114.144 9.78241 113.99 9.93693C113.836 10.0915 113.75 10.3007 113.75 10.5188V28.0277H93.5833V25.2777C93.5833 19.4325 96.5595 16.1111 103.437 16.1111C104.259 16.1111 105.08 16.1706 105.857 16.245C105.971 16.2554 106.085 16.2419 106.193 16.2054C106.301 16.169 106.4 16.1103 106.485 16.0333C106.569 15.9562 106.636 15.8624 106.681 15.7579C106.727 15.6535 106.75 15.5406 106.75 15.4266V4.41467C106.75 4.22249 106.682 4.03642 106.56 3.8886C106.437 3.74079 106.266 3.6405 106.077 3.60512C103.581 3.1158 101.046 2.85088 98.5029 2.81348C86.4702 2.81348 77.7648 10.0337 77.7648 25.9593V28.0218H68.0684C67.8505 28.0218 67.6416 28.1083 67.4875 28.2624C67.3335 28.4164 67.2469 28.6254 67.2469 28.8432V39.5575C67.2469 39.7754 67.3335 39.9843 67.4875 40.1383C67.6416 40.2924 67.8505 40.3789 68.0684 40.3789H77.7886V81.0337C77.7882 81.1416 77.8092 81.2486 77.8503 81.3485C77.8915 81.4483 77.952 81.539 78.0283 81.6154C78.1047 81.6917 78.1954 81.7522 78.2952 81.7934C78.3951 81.8345 78.5021 81.8555 78.61 81.8551H92.7708C92.9886 81.8551 93.1975 81.7686 93.3516 81.6145C93.5056 81.4605 93.5922 81.2515 93.5922 81.0337V40.3997H113.759V60.6795C113.759 75.2331 122.122 82.7926 134.726 82.7926C137.584 82.791 140.428 82.3851 143.173 81.5872C143.345 81.5383 143.497 81.4341 143.604 81.2905C143.712 81.1469 143.769 80.972 143.768 80.7926V69.5634C143.767 69.4523 143.745 69.3425 143.701 69.2404C143.657 69.1383 143.593 69.0462 143.513 68.9695C143.432 68.8927 143.337 68.833 143.233 68.7939C143.129 68.7549 143.019 68.7372 142.908 68.742C141.184 68.8164 139.661 68.8164 139.071 68.8164C131.851 68.8164 129.548 65.2629 129.548 58.5039V40.3997H144.556C144.774 40.3997 144.983 40.3132 145.137 40.1592C145.291 40.0051 145.378 39.7962 145.378 39.5783V28.864C145.38 28.7549 145.36 28.6465 145.32 28.5451C145.279 28.4437 145.219 28.3514 145.143 28.2736C145.066 28.1957 144.975 28.1339 144.874 28.0916C144.774 28.0494 144.666 28.0277 144.556 28.0277Z" fill="#FF0062"/>
<path d="M293.098 26.7659C276.369 26.8819 267.319 37.1825 267.319 51.745V81.2093C267.319 81.2949 267.335 81.3797 267.368 81.4588C267.401 81.5378 267.449 81.6097 267.509 81.6702C267.57 81.7307 267.642 81.7787 267.721 81.8115C267.8 81.8442 267.885 81.8611 267.97 81.8611H282.476C282.562 81.8611 282.647 81.8442 282.726 81.8115C282.805 81.7787 282.877 81.7307 282.937 81.6702C282.998 81.6097 283.046 81.5378 283.078 81.4588C283.111 81.3797 283.128 81.2949 283.128 81.2093V52.876C283.128 45.3135 286.452 40.6141 293.098 40.501C299.741 40.6141 303.066 45.3135 303.066 52.876V81.2093C303.066 81.2949 303.082 81.3797 303.115 81.4588C303.148 81.5378 303.196 81.6097 303.256 81.6702C303.317 81.7307 303.389 81.7787 303.468 81.8115C303.547 81.8442 303.632 81.8611 303.717 81.8611H318.223C318.309 81.8611 318.394 81.8442 318.473 81.8115C318.552 81.7787 318.624 81.7307 318.684 81.6702C318.745 81.6097 318.793 81.5378 318.825 81.4588C318.858 81.3797 318.875 81.2949 318.875 81.2093V51.745C318.875 37.1944 309.824 26.8819 293.098 26.7659Z" fill="#FF0062"/>
<path d="M40.8809 28.0278H26.3512V25.2778C26.3512 19.4325 29.3274 16.1111 36.2054 16.1111C37.0982 16.1111 37.9911 16.1796 38.8125 16.2629C38.903 16.2721 38.9945 16.2621 39.0809 16.2336C39.1674 16.2052 39.2468 16.1588 39.3142 16.0977C39.3816 16.0365 39.4353 15.9618 39.4719 15.8785C39.5086 15.7952 39.5272 15.7051 39.5268 15.6141V4.27776C39.526 4.12509 39.4721 3.97747 39.3743 3.86018C39.2766 3.74289 39.1411 3.66325 38.9911 3.63493C36.4495 3.13124 33.8675 2.85831 31.2768 2.81946C19.247 2.81946 10.5387 10.0397 10.5387 25.9653V28.0278H0.821428C0.713446 28.0274 0.606453 28.0484 0.506615 28.0895C0.406777 28.1306 0.316069 28.1911 0.239714 28.2675C0.163359 28.3438 0.102872 28.4346 0.0617309 28.5344C0.0205895 28.6342 -0.000387948 28.7412 5.43174e-06 28.8492V39.5635C-0.000387948 39.6715 0.0205895 39.7785 0.0617309 39.8783C0.102872 39.9781 0.163359 40.0689 0.239714 40.1452C0.316069 40.2216 0.406777 40.2821 0.506615 40.3232C0.606453 40.3643 0.713446 40.3853 0.821428 40.3849H10.5387V81.0397C10.5387 81.1478 10.56 81.2548 10.6015 81.3547C10.643 81.4545 10.7037 81.5453 10.7803 81.6216C10.8569 81.6979 10.9478 81.7583 11.0478 81.7994C11.1478 81.8405 11.255 81.8615 11.3631 81.8611H25.5298C25.7476 81.8611 25.9565 81.7746 26.1106 81.6205C26.2646 81.4665 26.3512 81.2575 26.3512 81.0397V40.3998H40.8809C40.9891 40.4002 41.0962 40.3792 41.1962 40.3381C41.2962 40.297 41.3871 40.2366 41.4637 40.1603C41.5403 40.0839 41.6011 39.9933 41.6425 39.8934C41.684 39.7936 41.7054 39.6865 41.7054 39.5784V28.8641C41.7073 28.7547 41.6875 28.646 41.6469 28.5445C41.6063 28.4429 41.5458 28.3504 41.469 28.2725C41.3923 28.1946 41.3007 28.1329 41.1997 28.0908C41.0987 28.0488 40.9903 28.0274 40.8809 28.0278Z" fill="#FF0062"/>
</svg>
